<svg width="50" height="50" viewBox="0 0 50 50" fill="none" xmlns="http://www.w3.org/2000/svg">
<path d="M44.7291 9.0625L41.9374 7.89583V26.7083L46.9999 14.5C47.8541 12.375 46.8749 9.9375 44.7291 9.0625ZM4.10411 16.7708L14.4374 41.6667C14.7417 42.4241 15.2607 43.0761 15.9307 43.5425C16.6006 44.0089 17.3923 44.2693 18.2083 44.2917C18.7499 44.2917 19.3124 44.1875 19.8541 43.9583L35.2083 37.6042C36.7708 36.9583 37.7291 35.4167 37.7708 33.875C37.7916 33.3333 37.6874 32.7292 37.4999 32.1875L27.0833 7.29167C26.7888 6.52921 26.2717 5.87304 25.5991 5.40858C24.9266 4.94411 24.1298 4.69285 23.3124 4.6875C22.7708 4.6875 22.2291 4.8125 21.7083 5L6.37494 11.3542C5.3557 11.7716 4.54392 12.5766 4.11809 13.5924C3.69226 14.6081 3.68723 15.7514 4.10411 16.7708ZM37.7499 8.85417C37.7499 7.7491 37.311 6.68929 36.5296 5.90789C35.7482 5.12649 34.6883 4.6875 33.5833 4.6875H30.5624L37.7499 22.0625" fill="#291BE5"/>
</svg>
